<svg id="visual" viewBox="0 0 600 900" width="600" height="900" xmlns="http://www.w3.org/2000/svg" xmlns:xlink="http://www.w3.org/1999/xlink" version="1.1"><rect x="0" y="0" width="600" height="900" fill="#303030"></rect><path d="M0 361L14.3 348.8C28.7 336.7 57.3 312.3 85.8 306.8C114.3 301.3 142.7 314.7 171.2 323.2C199.7 331.7 228.3 335.3 257 335.7C285.7 336 314.3 333 343 325.3C371.7 317.7 400.3 305.3 428.8 294.5C457.3 283.7 485.7 274.3 514.2 278.7C542.7 283 571.3 301 585.7 310L600 319L600 0L585.7 0C571.3 0 542.7 0 514.2 0C485.7 0 457.3 0 428.8 0C400.3 0 371.7 0 343 0C314.3 0 285.7 0 257 0C228.3 0 199.7 0 171.2 0C142.7 0 114.3 0 85.8 0C57.3 0 28.7 0 14.3 0L0 0Z" fill="#fa7268"></path><path d="M0 300L14.3 293.5C28.7 287 57.3 274 85.8 259.8C114.3 245.7 142.7 230.3 171.2 222.7C199.7 215 228.3 215 257 219.3C285.7 223.7 314.3 232.3 343 236.7C371.7 241 400.3 241 428.8 250C457.3 259 485.7 277 514.2 271C542.7 265 571.3 235 585.7 220L600 205L600 0L585.7 0C571.3 0 542.7 0 514.2 0C485.7 0 457.3 0 428.8 0C400.3 0 371.7 0 343 0C314.3 0 285.7 0 257 0C228.3 0 199.7 0 171.2 0C142.7 0 114.3 0 85.8 0C57.3 0 28.7 0 14.3 0L0 0Z" fill="#ef5f67"></path><path d="M0 158L14.3 154C28.7 150 57.3 142 85.8 153.2C114.3 164.3 142.7 194.7 171.2 201C199.7 207.3 228.3 189.7 257 175.3C285.7 161 314.3 150 343 145.7C371.7 141.3 400.3 143.7 428.8 153C457.3 162.3 485.7 178.7 514.2 178C542.7 177.3 571.3 159.7 585.7 150.8L600 142L600 0L585.7 0C571.3 0 542.7 0 514.2 0C485.7 0 457.3 0 428.8 0C400.3 0 371.7 0 343 0C314.3 0 285.7 0 257 0C228.3 0 199.7 0 171.2 0C142.7 0 114.3 0 85.8 0C57.3 0 28.7 0 14.3 0L0 0Z" fill="#e34c67"></path><path d="M0 160L14.3 156.7C28.7 153.3 57.3 146.7 85.8 145.2C114.3 143.7 142.7 147.3 171.2 148.2C199.7 149 228.3 147 257 148.2C285.7 149.3 314.3 153.7 343 154.7C371.7 155.7 400.3 153.3 428.8 143.7C457.3 134 485.7 117 514.2 112.8C542.7 108.7 571.3 117.3 585.7 121.7L600 126L600 0L585.7 0C571.3 0 542.7 0 514.2 0C485.7 0 457.3 0 428.8 0C400.3 0 371.7 0 343 0C314.3 0 285.7 0 257 0C228.3 0 199.7 0 171.2 0C142.7 0 114.3 0 85.8 0C57.3 0 28.7 0 14.3 0L0 0Z" fill="#d53867"></path><path d="M0 41L14.3 49.3C28.7 57.7 57.3 74.3 85.8 78C114.3 81.7 142.7 72.3 171.2 73C199.7 73.7 228.3 84.3 257 84.8C285.7 85.3 314.3 75.7 343 71.3C371.7 67 400.3 68 428.8 69.8C457.3 71.7 485.7 74.3 514.2 79.5C542.7 84.7 571.3 92.3 585.7 96.2L600 100L600 0L585.7 0C571.3 0 542.7 0 514.2 0C485.7 0 457.3 0 428.8 0C400.3 0 371.7 0 343 0C314.3 0 285.7 0 257 0C228.3 0 199.7 0 171.2 0C142.7 0 114.3 0 85.8 0C57.3 0 28.7 0 14.3 0L0 0Z" fill="#c62368"></path></svg>