<svg id="visual" viewBox="0 0 600 900" width="600" height="900" xmlns="http://www.w3.org/2000/svg" xmlns:xlink="http://www.w3.org/1999/xlink" version="1.1"><rect x="0" y="0" width="600" height="900" fill="#ffffff"></rect><path d="M0 341L14.3 314.3C28.7 287.7 57.3 234.3 85.8 246.7C114.3 259 142.7 337 171.2 353.3C199.7 369.7 228.3 324.3 257 316.2C285.7 308 314.3 337 343 337.3C371.7 337.7 400.3 309.3 428.8 295.3C457.3 281.3 485.7 281.7 514.2 294.5C542.7 307.3 571.3 332.7 585.7 345.3L600 358L600 901L585.7 901C571.3 901 542.7 901 514.2 901C485.7 901 457.3 901 428.8 901C400.3 901 371.7 901 343 901C314.3 901 285.7 901 257 901C228.3 901 199.7 901 171.2 901C142.7 901 114.3 901 85.8 901C57.3 901 28.7 901 14.3 901L0 901Z" fill="#ffd2cf"></path><path d="M0 349L14.3 351.7C28.7 354.3 57.3 359.7 85.8 380.3C114.3 401 142.7 437 171.2 422.8C199.7 408.7 228.3 344.3 257 349.2C285.7 354 314.3 428 343 452.8C371.7 477.7 400.3 453.3 428.8 424.2C457.3 395 485.7 361 514.2 370.8C542.7 380.7 571.3 434.3 585.7 461.2L600 488L600 901L585.7 901C571.3 901 542.7 901 514.2 901C485.7 901 457.3 901 428.8 901C400.3 901 371.7 901 343 901C314.3 901 285.7 901 257 901C228.3 901 199.7 901 171.2 901C142.7 901 114.3 901 85.8 901C57.3 901 28.7 901 14.3 901L0 901Z" fill="#f7b3b4"></path><path d="M0 461L14.3 466.2C28.7 471.3 57.3 481.7 85.8 485.5C114.3 489.3 142.7 486.7 171.2 476.2C199.7 465.7 228.3 447.3 257 465.2C285.7 483 314.3 537 343 556.2C371.7 575.3 400.3 559.7 428.8 540.2C457.3 520.7 485.7 497.3 514.2 489.2C542.7 481 571.3 488 585.7 491.5L600 495L600 901L585.7 901C571.3 901 542.7 901 514.2 901C485.7 901 457.3 901 428.8 901C400.3 901 371.7 901 343 901C314.3 901 285.7 901 257 901C228.3 901 199.7 901 171.2 901C142.7 901 114.3 901 85.8 901C57.3 901 28.7 901 14.3 901L0 901Z" fill="#ed949c"></path><path d="M0 579L14.3 594.3C28.7 609.7 57.3 640.3 85.8 654.2C114.3 668 142.7 665 171.2 640C199.7 615 228.3 568 257 568.7C285.7 569.3 314.3 617.7 343 625.5C371.7 633.3 400.3 600.7 428.8 596.8C457.3 593 485.7 618 514.2 624.5C542.7 631 571.3 619 585.7 613L600 607L600 901L585.7 901C571.3 901 542.7 901 514.2 901C485.7 901 457.3 901 428.8 901C400.3 901 371.7 901 343 901C314.3 901 285.7 901 257 901C228.3 901 199.7 901 171.2 901C142.7 901 114.3 901 85.8 901C57.3 901 28.7 901 14.3 901L0 901Z" fill="#e27487"></path><path d="M0 670L14.3 671.2C28.7 672.3 57.3 674.7 85.8 682C114.3 689.3 142.7 701.7 171.2 693C199.7 684.3 228.3 654.7 257 655C285.7 655.3 314.3 685.7 343 703.7C371.7 721.7 400.3 727.3 428.8 727.3C457.3 727.3 485.7 721.7 514.2 710C542.7 698.3 571.3 680.7 585.7 671.8L600 663L600 901L585.7 901C571.3 901 542.7 901 514.2 901C485.7 901 457.3 901 428.8 901C400.3 901 371.7 901 343 901C314.3 901 285.7 901 257 901C228.3 901 199.7 901 171.2 901C142.7 901 114.3 901 85.8 901C57.3 901 28.7 901 14.3 901L0 901Z" fill="#d55076"></path><path d="M0 814L14.3 800C28.7 786 57.3 758 85.8 752.7C114.3 747.3 142.7 764.7 171.2 766.2C199.7 767.7 228.3 753.3 257 749.5C285.7 745.7 314.3 752.3 343 763.8C371.7 775.3 400.3 791.7 428.8 789.2C457.3 786.7 485.7 765.3 514.2 754.2C542.7 743 571.3 742 585.7 741.5L600 741L600 901L585.7 901C571.3 901 542.7 901 514.2 901C485.7 901 457.3 901 428.8 901C400.3 901 371.7 901 343 901C314.3 901 285.7 901 257 901C228.3 901 199.7 901 171.2 901C142.7 901 114.3 901 85.8 901C57.3 901 28.7 901 14.3 901L0 901Z" fill="#c62368"></path></svg>