<svg id="visual" viewBox="0 0 600 900" width="600" height="900" xmlns="http://www.w3.org/2000/svg" xmlns:xlink="http://www.w3.org/1999/xlink" version="1.1"><path d="M0 127L67 136L133 154L200 280L267 262L333 208L400 181L467 343L533 136L600 244L600 0L533 0L467 0L400 0L333 0L267 0L200 0L133 0L67 0L0 0Z" fill="#303030"></path><path d="M0 370L67 406L133 505L200 487L267 415L333 478L400 487L467 550L533 388L600 433L600 242L533 134L467 341L400 179L333 206L267 260L200 278L133 152L67 134L0 125Z" fill="#4c3339"></path><path d="M0 505L67 550L133 640L200 595L267 577L333 667L400 604L467 622L533 604L600 568L600 431L533 386L467 548L400 485L333 476L267 413L200 485L133 503L67 404L0 368Z" fill="#673442"></path><path d="M0 640L67 667L133 703L200 739L267 703L333 721L400 721L467 694L533 703L600 730L600 566L533 602L467 620L400 602L333 665L267 575L200 593L133 638L67 548L0 503Z" fill="#83324c"></path><path d="M0 775L67 784L133 784L200 793L267 829L333 838L400 829L467 784L533 820L600 784L600 728L533 701L467 692L400 719L333 719L267 701L200 737L133 701L67 665L0 638Z" fill="#9f2c56"></path><path d="M0 901L67 901L133 901L200 901L267 901L333 901L400 901L467 901L533 901L600 901L600 782L533 818L467 782L400 827L333 836L267 827L200 791L133 782L67 782L0 773Z" fill="#bb1f60"></path></svg>